<svg xmlns="http://www.w3.org/2000/svg" width="1920" height="1962"><path d="M0 0c54.572-.086 109.143-.165 163.715-.212l2.446-.002a408731 408731 0 0 1 78.431-.06l2.594-.003c27.764-.021 55.527-.059 83.291-.104a66005 66005 0 0 1 97.643-.093l2.401-.001c12.771-.006 25.543-.03 38.314-.06q19.244-.044 38.486-.033 11.444.008 22.887-.036c5.686-.02 11.371-.016 17.058 0q3.462.003 6.924-.02c3.124-.02 6.246-.01 9.37.009l2.753-.04c6.093.082 6.093.082 9.175 3.053L577 5l1.64 2.254a713 713 0 0 1 9.11 13.371c6.954 10.47 14.137 20.783 21.324 31.094 5.505 7.896 10.99 15.794 16.293 23.828 2.13 3.199 4.341 6.336 6.555 9.476 2.7 3.869 5.357 7.767 8.015 11.665a2802 2802 0 0 0 15.188 22c9.83 14.115 19.57 28.268 29.043 42.626a434 434 0 0 0 11.941 17.09c2.775 3.81 5.431 7.696 8.078 11.596l3.38 4.957 1.719 2.526c2.773 4.072 5.556 8.138 8.339 12.204l1.635 2.39c4.788 6.998 9.59 13.986 14.397 20.971L740.5 243l2.75 4 27.5 40 1.375 2 2.754 4.007a26548 26548 0 0 0 9.496 13.805l1.37 1.992a3704 3704 0 0 1 7.275 10.618A3240 3240 0 0 0 811 345.5c8.27 11.868 16.445 23.8 24.578 35.762l5.614 8.25c5.332 7.82 10.741 15.585 16.159 23.345a913 913 0 0 1 12.418 18.28 490 490 0 0 0 8.356 12.191 1078 1078 0 0 1 6.813 9.86c4.716 6.877 9.48 13.722 14.25 20.562 4.8 6.886 9.555 13.79 14.18 20.797 2.128 3.199 4.34 6.336 6.554 9.476 2.7 3.869 5.357 7.767 8.015 11.664a2623 2623 0 0 0 15.375 22.25c4.76 6.824 9.473 13.666 14.055 20.61 2.128 3.197 4.34 6.332 6.551 9.473 6.42 9.191 12.701 18.482 19.012 27.75l1.992 2.924q1.896 2.784 3.789 5.569c3.5 5.14 7.04 10.25 10.614 15.34 2.568 3.675 5.09 7.38 7.612 11.085a2516 2516 0 0 0 15.25 22.062c4.893 7.013 9.729 14.053 14.448 21.184 5.163 7.799 10.533 15.453 15.9 23.113l1.888 2.694q1.851 2.642 3.705 5.281c3.01 4.293 5.988 8.599 8.872 12.978 5.034-3.743 8.672-8.15 12.578-13.04 2.385-2.915 4.868-5.692 7.422-8.46a223 223 0 0 0 9.5-11 223 223 0 0 1 9.5-11c4.114-4.47 7.97-9.09 11.785-13.816 2.88-3.49 5.922-6.814 8.969-10.157 2.308-2.597 4.502-5.261 6.684-7.965 3.86-4.772 7.934-9.293 12.09-13.808 3.22-3.586 6.231-7.321 9.257-11.07 2.171-2.631 4.417-5.163 6.715-7.684 5.182-5.694 10-11.666 14.836-17.655q2.043-2.522 4.101-5.033l2.497-3.074L1185 582h2l.825-1.79c1.147-2.157 2.35-3.747 3.968-5.565l1.651-1.875c.575-.646 1.15-1.292 1.744-1.957 4.394-4.983 8.63-9.994 12.542-15.372.42-.475.838-.95 1.27-1.441h2l.75-1.672c1.492-2.78 3.287-5.11 5.25-7.578l2.125-2.703L1221 540h2l.746-1.715c1.47-2.677 3.232-4.615 5.316-6.847a227 227 0 0 0 9.438-10.938c3.611-4.464 7.387-8.73 11.254-12.973 2.308-2.597 4.502-5.261 6.684-7.964 3.86-4.774 7.936-9.297 12.093-13.813 2.413-2.687 4.702-5.44 6.969-8.25a223 223 0 0 1 9.5-11c4.021-4.373 7.802-8.881 11.535-13.5 4.476-5.447 9.134-10.738 13.767-16.052q4.167-4.782 8.323-9.573l1.63-1.879c3.995-4.609 7.933-9.262 11.858-13.93a345 345 0 0 1 8.512-9.691c5.274-5.805 10.49-11.775 15.008-18.195L1357 382h2l.746-1.715c1.47-2.677 3.232-4.615 5.316-6.848 5.653-6.164 11.292-12.467 15.938-19.437h2l.746-1.715c1.47-2.677 3.232-4.615 5.316-6.848a227 227 0 0 0 9.438-10.937c3.611-4.464 7.387-8.73 11.254-12.973 2.308-2.597 4.502-5.261 6.684-7.964 3.86-4.773 7.934-9.294 12.09-13.81 3.22-3.585 6.231-7.32 9.257-11.07 2.88-3.489 5.922-6.813 8.969-10.156 2.308-2.597 4.502-5.261 6.684-7.964 3.86-4.773 7.934-9.294 12.09-13.81 3.22-3.585 6.231-7.32 9.257-11.07 2.171-2.63 4.417-5.162 6.715-7.683 5.56-6.11 10.707-12.536 15.89-18.965l2.36-2.91 2.11-2.617c2.258-2.647 4.665-5.064 7.14-7.508 5.268-5.627 10.204-11.451 14.973-17.504 2.788-3.433 5.77-6.672 8.75-9.937 2.3-2.585 4.482-5.238 6.652-7.934 3.245-4.013 6.612-7.85 10.125-11.625 4.215-4.535 8.184-9.216 12.07-14.035 4.46-5.442 9.113-10.718 13.736-16.021q4.134-4.748 8.256-9.506l1.63-1.88A4124 4124 0 0 0 1602 98a5463 5463 0 0 1 28.324-32.824 1669 1669 0 0 0 16.512-19.262A1113 1113 0 0 1 1657.5 33.5a1310 1310 0 0 0 12.125-14.125l2.485-2.875a76 76 0 0 0 5.222-6.914c3.488-5 6.45-8.89 12.41-10.76 4.43-.583 8.84-.438 13.296-.302q2.544.006 5.088-.006c4.576-.003 9.147.073 13.721.164 4.791.082 9.582.089 14.374.104 9.06.04 18.118.147 27.177.278 10.319.145 20.638.217 30.958.282 21.216.135 42.43.364 63.644.654-1.711 3.634-3.8 6.126-6.562 9.063-3.453 3.712-6.757 7.485-9.938 11.437a223 223 0 0 1-9.5 11c-4.021 4.373-7.802 8.881-11.535 13.5-4.477 5.449-9.137 10.74-13.771 16.056A6002 6002 0 0 0 1792 78l-1.607 1.857q-2.355 2.726-4.706 5.456l-1.497 1.739c-3.694 4.312-7.224 8.736-10.667 13.253L1772 102h-2c-.22.53-.44 1.06-.668 1.605-1.81 3.255-4.202 5.922-6.645 8.707l-1.605 1.852a1882 1882 0 0 1-3.374 3.878c-2.202 2.524-4.395 5.056-6.588 7.588l-3.262 3.762q-5.45 6.285-10.858 12.608c-4.149 4.85-8.317 9.68-12.5 14.5a2960 2960 0 0 0-12.562 14.563c-.49.57-.978 1.141-1.482 1.729a5652 5652 0 0 0-7.558 8.845c-4.471 5.238-8.95 10.456-13.585 15.55-3.852 4.24-7.461 8.642-11.063 13.094-2.895 3.498-5.946 6.837-9.004 10.192-2.308 2.597-4.502 5.261-6.684 7.964-3.86 4.773-7.934 9.294-12.09 13.81-3.215 3.581-6.225 7.311-9.245 11.058-2.934 3.55-6.04 6.927-9.149 10.324-2.503 2.856-4.723 5.854-6.887 8.973L1624 274h-2l-.719 1.64c-1.624 2.993-3.631 5.472-5.781 8.11l-2.406 2.984L1611 289h-2l-.825 1.79c-1.147 2.157-2.35 3.747-3.968 5.565l-1.651 1.875c-.575.646-1.15 1.292-1.744 1.957-4.394 4.983-8.63 9.994-12.542 15.372-.42.475-.838.95-1.27 1.441h-2l-.75 1.672c-1.492 2.78-3.287 5.11-5.25 7.578l-2.125 2.703L1575 331h-2l-.746 1.715c-1.47 2.677-3.232 4.615-5.316 6.848a227 227 0 0 0-9.438 10.937c-3.611 4.464-7.387 8.73-11.254 12.973-2.308 2.597-4.502 5.261-6.684 7.964-3.86 4.773-7.934 9.294-12.09 13.81-3.22 3.585-6.231 7.32-9.257 11.07-2.171 2.63-4.417 5.162-6.715 7.683a234 234 0 0 0-9 10.5c-3.611 4.464-7.387 8.73-11.254 12.973-2.308 2.597-4.502 5.261-6.684 7.964-3.86 4.774-7.936 9.297-12.093 13.813-2.413 2.687-4.702 5.44-6.969 8.25a223 223 0 0 1-9.5 11c-5.51 5.992-10.941 12.15-15.629 18.816L1439 489h-2l-.746 1.715c-1.47 2.677-3.232 4.615-5.316 6.848-5.653 6.164-11.292 12.467-15.938 19.437h-2l-.746 1.715c-1.47 2.677-3.232 4.615-5.316 6.847a227 227 0 0 0-9.438 10.938c-3.611 4.464-7.387 8.73-11.254 12.973-2.308 2.597-4.502 5.261-6.684 7.965-3.86 4.772-7.934 9.293-12.09 13.808-3.22 3.586-6.231 7.321-9.257 11.07-2.88 3.49-5.922 6.814-8.969 10.157-2.308 2.597-4.502 5.261-6.684 7.965-3.86 4.772-7.934 9.293-12.09 13.808-3.22 3.586-6.231 7.321-9.257 11.07-2.171 2.631-4.417 5.163-6.715 7.684-5.182 5.694-10 11.666-14.836 17.655q-2.043 2.522-4.101 5.033l-2.497 3.074L1291 661h-2l-.746 1.715c-1.47 2.677-3.232 4.615-5.316 6.847-3.176 3.464-6.236 6.97-9.188 10.625-4.68 5.779-9.544 11.382-14.426 16.989-3.127 3.592-6.23 7.204-9.324 10.824a3001 3001 0 0 1-14.145 16.395Q1230.407 730.678 1225 737c-4.149 4.85-8.317 9.68-12.5 14.5A3973 3973 0 0 0 1194 773a4330 4330 0 0 1-20.142 23.392 3461 3461 0 0 0-15.321 17.813q-4.141 4.837-8.287 9.67l-3.047 3.555L1145 830c2.697 5.71 6.464 10.786 10 16l1.584 2.34a3176 3176 0 0 0 23.572 34.26c7.55 10.836 14.997 21.74 22.422 32.662 7.13 10.48 14.314 20.92 21.564 31.318 7.656 10.988 15.29 21.995 22.67 33.17 6.55 9.872 13.408 19.536 20.188 29.25 16.184 23.188 16.184 23.188 21.973 31.953 7.18 10.792 14.58 21.438 22.027 32.047 8.068 11.493 16.074 23.032 23.813 34.75 7.223 10.889 14.801 21.544 22.287 32.254 7.208 10.313 14.378 20.638 21.314 31.136 4.856 7.325 9.893 14.522 14.926 21.726a821 821 0 0 1 12.027 17.68c2.127 3.196 4.336 6.329 6.547 9.466 2.746 3.934 5.445 7.9 8.149 11.863a1890 1890 0 0 0 14.062 20.313c8.062 11.489 16.04 23.025 23.805 34.718 6.552 9.792 13.306 19.447 20.07 29.094 7.432 10.6 14.839 21.215 22 32 6.721 10.122 13.666 20.091 20.616 30.057 7.908 11.34 15.713 22.745 23.474 34.185a3215 3215 0 0 0 13.614 19.877q2.085 3.026 4.163 6.057l1.462 2.128 2.706 3.944q3.643 5.302 7.34 10.564c3.672 5.24 7.278 10.522 10.875 15.813a4471 4471 0 0 0 13.375 19.563 6469 6469 0 0 1 11.875 17.312c8.415 12.302 16.855 24.583 25.375 36.813 8.31 11.931 16.527 23.924 24.703 35.949a3308 3308 0 0 0 21.58 31.34c7.55 10.835 14.995 21.74 22.42 32.66a3308 3308 0 0 0 21.58 31.34c7.55 10.835 14.995 21.74 22.42 32.66a3250 3250 0 0 0 21.913 31.806 836 836 0 0 1 11.876 17.479c2.13 3.199 4.341 6.336 6.555 9.476 2.7 3.869 5.357 7.767 8.015 11.665a2623 2623 0 0 0 15.376 22.25c4.759 6.823 9.472 13.665 14.054 20.609 2.13 3.199 4.341 6.336 6.555 9.476 2.7 3.869 5.357 7.767 8.015 11.665a2626 2626 0 0 0 15.376 22.25c4.67 6.698 9.3 13.412 13.8 20.226 7.425 11.16 15.165 22.114 22.827 33.112q7.35 10.556 14.59 21.188a627 627 0 0 0 7.275 10.497l1.293 1.828q1.689 2.376 3.39 4.742C1920 1959 1920 1959 1920 1962c-54.515.188-109.03.363-163.545.466l-2.445.004q-26.295.05-52.592.092l-28.383.047c-27.736.046-55.471.13-83.207.23-28.499.104-56.997.172-85.496.194l-12.073.01-2.4.003c-12.756.013-25.511.064-38.267.13q-19.23.097-38.46.073a2322 2322 0 0 0-22.856.08c-5.687.046-11.372.035-17.058 0a407 407 0 0 0-6.909.045c-17.239.242-17.239.242-22.382-3.774-2.073-2.799-3.517-5.427-4.927-8.6a93 93 0 0 0-2.73-3.906q-1.231-1.795-2.457-3.594l-1.384-2.02-2.92-4.27a7321 7321 0 0 0-4.646-6.792q-6.516-9.513-13.015-19.04A3213 3213 0 0 0 1294 1885.5c-8.414-12.075-16.825-24.157-24.937-36.437-4.125-6.222-8.423-12.32-12.712-18.429a2292 2292 0 0 1-15.011-21.68 2824 2824 0 0 0-4.184-6.079c-3.99-5.786-7.972-11.571-11.843-17.437-5.31-8.008-10.85-15.858-16.344-23.739a3106 3106 0 0 1-13.683-19.825q-2.645-3.854-5.297-7.705a9755 9755 0 0 1-25.787-37.679c-5.278-7.748-10.568-15.486-15.917-23.185-2.847-4.107-5.656-8.24-8.473-12.368a1757 1757 0 0 0-14-20.187 845 845 0 0 1-13.479-19.734 498 498 0 0 0-8.458-12.344 1059 1059 0 0 1-6.812-9.86A3476 3476 0 0 0 1083 1578.5c-8.406-12.073-16.792-24.15-24.93-36.406-6.552-9.792-13.306-19.447-20.07-29.094-7.432-10.6-14.839-21.215-22-32-6.1-9.188-12.377-18.256-18.7-27.293a1621 1621 0 0 1-22.71-33.34 578 578 0 0 0-13.246-19.105c-5.621-7.78-10.958-15.765-16.367-23.692l-3.164-4.632-1.63-2.385a2582 2582 0 0 0-13.058-18.866c-8.419-12.076-16.706-24.24-24.98-36.416a3425 3425 0 0 0-23.294-33.86c-5.84-8.38-11.612-16.806-17.37-25.243-2.319-3.394-4.65-6.781-6.981-10.168a8114 8114 0 0 1-13.635-19.892A9532 9532 0 0 0 825 1203c-2.567 2.524-4.975 4.967-7.187 7.813L816 1213h-2l-.648 1.586c-1.902 3.396-4.411 6.127-6.977 9.039-4.458 5.11-8.74 10.285-12.852 15.68L792 1241h-2l-.719 1.64c-1.624 2.993-3.631 5.472-5.781 8.11l-2.406 2.984L779 1256h-2l-.75 1.672c-1.492 2.78-3.287 5.11-5.25 7.578l-2.125 2.703L767 1270h-2l-.75 1.672c-1.492 2.78-3.287 5.11-5.25 7.578l-2.125 2.703L755 1284h-2l-.746 1.715c-1.47 2.677-3.232 4.615-5.317 6.848a221 221 0 0 0-9.375 10.874c-3.86 4.773-7.934 9.294-12.09 13.81-3.22 3.585-6.231 7.32-9.257 11.07-2.171 2.63-4.417 5.162-6.715 7.683a234 234 0 0 0-9 10.5c-3.611 4.464-7.387 8.73-11.254 12.973-2.308 2.597-4.502 5.261-6.683 7.965-3.86 4.772-7.935 9.293-12.09 13.808-3.22 3.586-6.232 7.321-9.258 11.07-2.171 2.631-4.417 5.163-6.715 7.684-5.182 5.694-10 11.666-14.836 17.655q-2.043 2.522-4.101 5.033l-2.497 3.074L631 1428h-2l-.742 1.71c-1.485 2.703-3.278 4.663-5.383 6.915-5.15 5.615-10.105 11.416-14.477 17.664L607 1456h-2l-.746 1.715c-1.47 2.677-3.232 4.615-5.317 6.848a227 227 0 0 0-9.437 10.937c-3.611 4.464-7.387 8.73-11.254 12.973-2.308 2.597-4.502 5.261-6.683 7.965-3.86 4.772-7.935 9.293-12.09 13.808-3.22 3.586-6.232 7.321-9.258 11.07-2.88 3.49-5.922 6.814-8.969 10.157-2.308 2.597-4.502 5.261-6.683 7.965-3.86 4.772-7.935 9.293-12.09 13.808-3.22 3.586-6.232 7.321-9.258 11.07-2.171 2.631-4.417 5.163-6.715 7.684-5.182 5.694-10 11.666-14.836 17.655q-2.043 2.522-4.101 5.033l-2.497 3.074L483 1600h-2l-.742 1.71c-1.485 2.703-3.278 4.663-5.383 6.915-3.093 3.37-6.05 6.778-8.875 10.375-3.401 4.317-7.015 8.379-10.719 12.438-2.321 2.607-4.526 5.282-6.719 8-3.86 4.772-7.934 9.293-12.09 13.808-3.22 3.586-6.231 7.321-9.257 11.07-2.88 3.49-5.922 6.814-8.969 10.157-2.308 2.597-4.502 5.261-6.683 7.965-3.861 4.773-7.937 9.296-12.094 13.812-2.413 2.687-4.702 5.44-6.969 8.25a223 223 0 0 1-9.5 11c-4.021 4.373-7.802 8.881-11.535 13.5-2.849 3.467-5.771 6.863-8.715 10.25l-1.658 1.908a4458 4458 0 0 1-6.831 7.831 4529 4529 0 0 0-6.783 7.774c-3.585 4.136-6.987 8.367-10.208 12.796-.42.475-.838.95-1.27 1.441h-2l-.746 1.715c-1.47 2.677-3.232 4.615-5.317 6.848a227 227 0 0 0-9.437 10.937c-3.613 4.466-7.389 8.733-11.258 12.977-2.287 2.574-4.457 5.216-6.617 7.898-3.245 4.013-6.612 7.85-10.125 11.625-4.215 4.535-8.184 9.216-12.07 14.035-4.459 5.44-9.11 10.715-13.732 16.017q-4.167 4.782-8.323 9.573l-1.64 1.89a1310 1310 0 0 0-11.574 13.574c-4.042 4.789-8.144 9.524-12.255 14.255A2200 2200 0 0 0 220 1905c-4.149 4.85-8.317 9.68-12.5 14.5a3683 3683 0 0 0-16.99 19.735q-3.94 4.604-7.885 9.203l-2.836 3.308-1.347 1.5c-1.479 1.691-1.479 1.691-2.451 3.575-1.456 2.337-2.687 3.64-4.991 5.179-5.443 1.052-10.861.885-16.378.795q-2.53-.003-5.057.003c-4.568.002-9.135-.04-13.703-.088-4.777-.044-9.553-.048-14.33-.056a5055 5055 0 0 1-27.125-.15c-10.294-.078-20.59-.117-30.884-.152-21.175-.073-42.349-.196-63.523-.352 1.577-4.25 3.44-6.874 6.563-10.187 3.079-3.155 3.079-3.155 5.437-6.813h2l.746-1.715c1.47-2.677 3.232-4.615 5.317-6.848A227 227 0 0 0 29.5 1925.5c3.613-4.466 7.389-8.733 11.258-12.977 2.287-2.574 4.457-5.216 6.617-7.898 3.245-4.013 6.612-7.85 10.125-11.625 4.236-4.558 8.23-9.259 12.137-14.102 7.288-8.939 14.947-17.582 22.507-26.292A2413 2413 0 0 0 103 1840c6.844-7.998 13.745-15.946 20.646-23.896A4978 4978 0 0 0 147 1789a3742 3742 0 0 1 18.563-21.562c4.011-4.62 7.995-9.26 11.937-13.938s7.926-9.318 11.938-13.937c6.448-7.429 6.448-7.429 12.875-14.876l1.497-1.738c3.694-4.313 7.224-8.737 10.667-13.254L216 1708h2l.719-1.64c1.624-2.993 3.631-5.472 5.781-8.11l2.406-2.984L229 1693h2l.75-1.672c1.492-2.78 3.287-5.11 5.25-7.578l2.125-2.703L241 1679h2l.75-1.672c1.492-2.78 3.287-5.11 5.25-7.578l2.125-2.703L253 1665h2l.839-1.803c1.092-2.067 2.204-3.596 3.743-5.342l1.555-1.777 1.675-1.89 3.551-4.051 1.835-2.085c2.784-3.17 5.542-6.361 8.302-9.552q4.936-5.704 9.89-11.39c4.843-5.561 9.662-11.124 14.298-16.86 3.776-4.668 7.778-9.083 11.843-13.5 2.413-2.687 4.702-5.44 6.969-8.25a223 223 0 0 1 9.5-11c4.015-4.367 7.791-8.868 11.52-13.48 6.522-7.94 13.317-15.668 20.23-23.27 5.227-5.768 10.4-11.7 14.883-18.07L377 1521h2l.746-1.715c1.47-2.677 3.232-4.615 5.317-6.848 5.652-6.164 11.29-12.467 15.937-19.437h2l.746-1.715c1.47-2.677 3.232-4.615 5.317-6.848a227 227 0 0 0 9.437-10.937c3.611-4.464 7.387-8.73 11.254-12.973 2.308-2.597 4.502-5.261 6.683-7.965 3.86-4.772 7.935-9.293 12.09-13.808 3.22-3.586 6.232-7.321 9.258-11.07 2.88-3.49 5.922-6.814 8.969-10.157 2.308-2.597 4.502-5.261 6.683-7.965 3.86-4.772 7.935-9.293 12.09-13.808 3.22-3.586 6.232-7.321 9.258-11.07 2.171-2.631 4.417-5.163 6.715-7.684 5.182-5.694 10-11.666 14.836-17.655q2.043-2.522 4.101-5.033l2.497-3.074L525 1349h2l.742-1.71c1.485-2.703 3.278-4.663 5.383-6.915 3.093-3.37 6.05-6.778 8.875-10.375 3.401-4.317 7.015-8.379 10.719-12.437 2.321-2.608 4.526-5.283 6.718-8 3.86-4.773 7.935-9.294 12.09-13.81 3.22-3.585 6.232-7.32 9.258-11.07 2.88-3.489 5.922-6.813 8.969-10.156 2.308-2.597 4.502-5.261 6.683-7.965 3.861-4.773 7.937-9.296 12.094-13.812 2.413-2.687 4.702-5.44 6.969-8.25a223 223 0 0 1 9.5-11c4.015-4.367 7.791-8.868 11.52-13.48 6.522-7.94 13.317-15.668 20.23-23.27 3.828-4.22 7.417-8.603 11-13.031 2.895-3.498 5.946-6.837 9.004-10.192 2.308-2.597 4.502-5.261 6.683-7.965A228 228 0 0 1 693 1154.5c4.021-4.373 7.802-8.881 11.535-13.5 4.477-5.449 9.137-10.74 13.771-16.056 4.368-5.013 8.719-10.04 13.068-15.068q2.515-2.9 5.04-5.79l3.274-3.774 1.531-1.746c2.345-2.713 4.396-5.238 5.781-8.566a1709 1709 0 0 0-18.102-26.793c-2.507-3.635-4.999-7.28-7.488-10.928-5.53-8.104-11.11-16.17-16.722-24.216-4.76-6.824-9.473-13.666-14.055-20.61-2.13-3.199-4.341-6.336-6.555-9.476-2.7-3.869-5.357-7.767-8.015-11.664a2624 2624 0 0 0-15.375-22.25c-4.56-6.537-9.07-13.093-13.458-19.747-3.936-5.852-7.994-11.62-12.028-17.405-5.925-8.5-11.787-17.04-17.625-25.6q-4.035-5.909-8.077-11.811-4.828-7.05-9.645-14.11a3103 3103 0 0 0-17.73-25.702c-6.617-9.49-13.154-19.032-19.66-28.598-4.361-6.412-8.756-12.8-13.154-19.187q-3.409-4.95-6.811-9.903a30544 30544 0 0 0-10.875-15.812l-1.37-1.992a3704 3704 0 0 1-7.275-10.618 2940 2940 0 0 0-17.605-25.515c-6.442-9.232-12.78-18.53-19.086-27.853a2266 2266 0 0 0-18.635-27.096c-7.766-11.129-15.482-22.293-22.966-33.614-3.108-4.691-6.389-9.23-9.72-13.766a234 234 0 0 1-5.468-7.984c-4.062-6.157-8.278-12.202-12.5-18.25-4.864-6.97-9.686-13.954-14.367-21.047-2.13-3.199-4.341-6.336-6.555-9.476-2.7-3.869-5.357-7.767-8.015-11.664a2623 2623 0 0 0-15.375-22.25c-4.76-6.824-9.473-13.666-14.055-20.61-2.128-3.197-4.34-6.332-6.551-9.473-7.022-10.051-13.882-20.217-20.787-30.35-9.372-13.752-18.786-27.472-28.295-41.13-8.454-12.142-16.886-24.291-25.07-36.617-3.576-5.341-7.256-10.61-10.93-15.883-24.18-34.728-24.18-34.728-33.07-48.117-3.576-5.341-7.256-10.61-10.93-15.883-12.23-17.564-24.394-35.167-36.445-52.854a5447 5447 0 0 0-15.253-22.256 10920 10920 0 0 1-20.461-29.816 8208 8208 0 0 0-13.18-19.207 5254 5254 0 0 1-5.227-7.61 3756 3756 0 0 0-16.184-23.382c-7.227-10.371-14.361-20.803-21.468-31.257a5780 5780 0 0 0-8.532-12.493l-1.618-2.364a7923 7923 0 0 0-11.476-16.713q-3.63-5.274-7.238-10.564A2139 2139 0 0 0 48.812 73.75a837 837 0 0 1-13.338-19.523c-3.311-5.002-6.711-9.94-10.138-14.864q-2.474-3.557-4.922-7.133c-.446-.651-.893-1.302-1.352-1.974q-1.372-2.002-2.74-4.005a578 578 0 0 0-7.69-10.942l-1.678-2.34a672 672 0 0 0-3.246-4.474L2.238 6.45.927 4.647C0 3 0 3 0 0m233 129q1.646 2.601 3.294 5.201l1.854 2.926c2.712 4.206 5.583 8.29 8.477 12.373a1411 1411 0 0 1 13.938 20.125c4.734 6.958 9.606 13.8 14.56 20.604 4.473 6.163 8.784 12.428 13.066 18.725 6.737 9.899 13.664 19.663 20.643 29.393a1025 1025 0 0 1 12.788 18.28c5.468 7.977 11.027 15.89 16.582 23.809q4.401 6.28 8.798 12.564 5.336 7.625 10.676 15.246c10.092 14.406 10.092 14.406 14.949 21.442 3.282 4.75 6.602 9.474 9.938 14.187A2831 2831 0 0 1 397 364.5a2669 2669 0 0 0 14 20c5.354 7.562 10.646 15.166 15.933 22.775a6246 6246 0 0 0 14.911 21.368q4.375 6.245 8.754 12.486c5.417 7.726 10.821 15.46 16.152 23.246a843 843 0 0 0 11.134 15.852c4.77 6.652 9.423 13.387 14.091 20.111A2272 2272 0 0 0 504 517.5c9.01 12.726 17.89 25.544 26.75 38.375 3.899 5.64 7.855 11.239 11.814 16.836 3.69 5.221 7.339 10.47 10.971 15.73 7.48 10.819 15.054 21.573 22.653 32.309 4.323 6.108 8.578 12.26 12.804 18.436 3.403 4.96 6.88 9.864 10.388 14.75 3.41 4.754 6.744 9.556 10.065 14.373 6.038 8.742 12.163 17.425 18.261 26.125a7299 7299 0 0 1 15.333 22q5.674 8.16 11.376 16.302 3.239 4.626 6.46 9.264l1.18 1.691c2.83 4.078 2.83 4.078 3.945 6.309h2l.818 2.227c1.14 2.673 2.412 4.78 4.088 7.144l1.74 2.468 1.854 2.598 1.911 2.705a3186 3186 0 0 0 11.983 16.79c3.42 4.778 6.751 9.614 10.07 14.462 4.234 6.18 8.507 12.333 12.786 18.481l2.004 2.88Q721.615 828.889 728 838l3.254 4.648 1.627 2.325 12.646 18.066 1.738 2.482 3.488 4.983q4.336 6.197 8.677 12.39 9.374 13.38 18.695 26.793a2928 2928 0 0 0 15.289 21.808c4.982 7.043 9.897 14.132 14.805 21.226a685 685 0 0 0 9.875 13.904c3.484 4.77 6.845 9.61 10.156 14.5a1463 1463 0 0 0 15.668 22.52c3.293 4.648 6.565 9.312 9.832 13.98l1.753 2.505c5.24 7.494 10.458 15.004 15.676 22.513a2705 2705 0 0 0 13.232 18.85c5.657 7.999 11.239 16.05 16.827 24.097a5438 5438 0 0 0 14.121 20.2 3037 3037 0 0 1 17.946 25.83c4.58 6.674 9.207 13.31 13.927 19.887 5.657 7.886 11.202 15.848 16.736 23.82a2137 2137 0 0 0 12.22 17.423 1178 1178 0 0 1 12.187 17.563c9.519 13.956 19.21 27.78 29.141 41.445 3.689 5.092 7.21 10.262 10.66 15.52 1.873 2.795 3.83 5.51 5.824 8.222 2.728 3.71 5.34 7.468 7.875 11.313a377 377 0 0 0 8.625 12.5c4.571 6.346 9.042 12.76 13.5 19.187 4.4 6.34 8.806 12.673 13.313 18.938 3.938 5.482 7.772 11.03 11.583 16.603A699 699 0 0 0 1098 1367a779 779 0 0 1 10.25 14.625c5.92 8.648 11.933 17.23 17.952 25.81q4.401 6.281 8.798 12.565 5.336 7.624 10.676 15.246c10.092 14.406 10.092 14.406 14.949 21.441a1615 1615 0 0 0 10.063 14.376c9.044 12.795 18.062 25.605 26.874 38.562 4.735 6.958 9.607 13.8 14.561 20.604 4.477 6.167 8.79 12.437 13.075 18.738 4.488 6.595 9.072 13.118 13.685 19.627 3.496 4.934 6.963 9.888 10.43 14.843l1.704 2.438 3.313 4.736q6.008 8.594 12.03 17.178c5.437 7.754 10.862 15.515 16.203 23.336 3.847 5.63 7.8 11.173 11.812 16.688 6.232 8.57 12.221 17.294 18.176 26.058a1168 1168 0 0 0 16.37 23.412c8.484 11.852 16.8 23.823 25.036 35.85 3.802 5.542 7.678 11.03 11.565 16.514 3.35 4.734 6.647 9.5 9.916 14.29 3.988 5.842 8.09 11.592 12.25 17.313 4.216 5.8 8.3 11.654 12.238 17.648 4.032 6.03 8.267 11.92 12.466 17.835 2.75 3.877 5.491 7.76 8.233 11.642l1.542 2.18 1.435 2.03 1.26 1.784A263 263 0 0 1 1428 1839c1.968.45 1.968.45 4.275.37l2.736.017 3.024-.026 3.198.008c3.56.004 7.118-.012 10.678-.028h7.626q8.227.002 16.455-.024c7.93-.024 15.86-.032 23.791-.036a22791 22791 0 0 0 38.597-.055q18.75-.041 37.5-.061l2.334-.003 11.59-.011c32.065-.031 64.13-.084 96.196-.151l-3.365-5.307-1.893-2.985a144 144 0 0 0-5.691-8.196c-4.054-5.5-7.972-11.085-11.863-16.7l-2.105-3.029a3437 3437 0 0 1-11.958-17.345 842 842 0 0 0-11.01-15.666c-4.768-6.649-9.419-13.38-14.084-20.101a2133 2133 0 0 0-12.218-17.421c-4.826-6.806-9.539-13.685-14.235-20.58a509 509 0 0 0-10.57-14.893c-2.96-4.094-5.8-8.27-8.652-12.44-3.493-5.1-7.036-10.165-10.606-15.212l-1.548-2.188-2.918-4.123c-4.105-5.8-8.16-11.63-12.176-17.491a1024 1024 0 0 0-13.338-19.033c-3.629-5.06-7.15-10.19-10.665-15.33A699 699 0 0 0 1518 1598a779 779 0 0 1-10.25-14.625 2027 2027 0 0 0-26.133-37.29c-3.575-4.993-7.045-10.056-10.512-15.125A699 699 0 0 0 1462 1518c-3.944-5.487-7.792-11.034-11.609-16.61-4.4-6.422-8.865-12.798-13.335-19.171a2259 2259 0 0 1-9.681-13.907 1615 1615 0 0 0-10.062-14.374c-9.045-12.796-18.063-25.606-26.876-38.563-4.83-7.098-9.797-14.084-14.843-21.03-5.708-7.86-11.212-15.851-16.684-23.876l-5.038-7.384a804 804 0 0 0-11.21-15.957c-3.055-4.25-6.024-8.554-8.975-12.878a696 696 0 0 0-12.062-17.062c-5.07-6.97-9.98-14.034-14.826-21.16a965 965 0 0 0-10.611-15.278 2719 2719 0 0 1-14.376-20.5l-2.087-3.003q-5.313-7.645-10.6-15.31a896 896 0 0 0-8.812-12.5c-8.908-12.424-17.641-24.972-26.28-37.585-3.686-5.37-7.437-10.69-11.201-16.005A2533 2533 0 0 1 1210 1157.5a2665 2665 0 0 0-14-20c-5.401-7.627-10.736-15.3-16.067-22.977a2352 2352 0 0 0-12.245-17.46q-5.658-7.987-11.188-16.063c-6.232-9.101-12.605-18.102-18.988-27.097-5.783-8.15-11.51-16.332-17.137-24.59-4.1-6.017-8.248-11.99-12.499-17.9-7.958-11.076-15.746-22.276-23.438-33.538-3.948-5.778-8.01-11.465-12.126-17.125-4.218-5.803-8.304-11.658-12.242-17.656-3.013-4.504-6.161-8.91-9.299-13.327-3.799-5.36-7.516-10.77-11.208-16.205-4.758-6.991-9.64-13.878-14.613-20.718-8.893-12.247-17.498-24.7-26.048-37.188A709 709 0 0 0 990 843a780 780 0 0 1-10.25-14.625c-5.923-8.652-11.939-17.24-17.96-25.824a10431 10431 0 0 1-26.198-37.511 3838 3838 0 0 0-18.154-25.915c-9.083-12.86-18.146-25.731-27-38.75-4.83-7.098-9.798-14.084-14.844-21.03-5.708-7.86-11.212-15.851-16.684-23.876l-3.347-4.907a807 807 0 0 0-12.894-18.426c-3.118-4.337-6.154-8.727-9.169-13.136a843 843 0 0 0-11.372-16.21c-5.52-7.697-10.896-15.494-16.296-23.274a2570 2570 0 0 0-15.054-21.474 1340 1340 0 0 1-14.528-20.917c-3.938-5.783-7.94-11.494-12.094-17.125-2.959-4.117-5.804-8.309-8.656-12.5-4.07-5.981-8.201-11.896-12.492-17.723-2.964-4.099-5.806-8.279-8.66-12.454A1118 1118 0 0 0 724 462.5a1227 1227 0 0 1-11.625-16.687 813 813 0 0 0-10.5-15c-4.212-5.868-8.337-11.79-12.439-17.735-7.903-11.437-15.813-22.87-23.929-34.157-3.444-4.803-6.79-9.672-10.128-14.549-5.467-7.977-11.027-15.89-16.58-23.808-3.52-5.017-7.032-10.04-10.546-15.06a9308 9308 0 0 0-8.788-12.54c-5.831-8.308-11.625-16.638-17.34-25.026-3.887-5.705-7.833-11.347-11.926-16.907-4.883-6.73-9.602-13.58-14.361-20.4q-3.496-5.002-7-9.998a8657 8657 0 0 1-18.877-27.066 6807 6807 0 0 0-14.668-21.002 5994 5994 0 0 1-13.418-19.252c-5.119-7.368-10.254-14.723-15.456-22.032l-1.282-1.808-1.39-1.84c-1.44-2.17-2.489-4.163-3.583-6.506-2.745-5.394-5.684-10.808-11.593-13.048-7.417-1.48-14.982-1.082-22.503-.895q-3.816.006-7.63-.007c-5.463-.004-10.92.041-16.382.131-7.894.13-15.787.172-23.683.192a4208 4208 0 0 0-38.432.293c-12.439.147-24.877.26-37.316.328l-2.326.013-11.556.06c-31.916.166-63.829.45-95.743.806"/></svg>